<svg width="332" height="90" viewBox="0 0 332 90" version="1.1" xmlns="http://www.w3.org/2000/svg" xmlns:xlink="http://www.w3.org/1999/xlink" xmlns:figma="http://www.figma.com/figma/ns">
<title>Staffr Logo</title>
<desc>Created using Figma</desc>
<g id="Canvas" transform="translate(-1682 -194)" figma:type="canvas">
<g id="Staffr Logo" figma:type="frame">
<g id="Vector" figma:type="vector">
<use xlink:href="#path0_fill" transform="translate(1682 194)" fill="#FFFFFF"/>
</g>
<g id="Vector" figma:type="vector">
<use xlink:href="#path1_fill" transform="translate(1739.08 217.698)" fill="#FFFFFF"/>
</g>
<g id="Vector" figma:type="vector">
<use xlink:href="#path2_fill" transform="translate(1698.05 217.698)" fill="#FFFFFF"/>
</g>
<g id="Vector" figma:type="vector">
<use xlink:href="#path3_fill" transform="translate(1691.94 232)" fill="#FFFFFF"/>
</g>
<g id="Vector" figma:type="vector">
<use xlink:href="#path4_fill" transform="translate(1716.89 209.192)" fill="#FFFFFF"/>
</g>
<g id="STAFFR" figma:type="text">
<use xlink:href="#path5_fill" transform="translate(1786 197)" fill="#FFFFFF"/>
</g>
</g>
</g>
<defs>
<path id="path0_fill" d="M 13.183 13.161C 4.682 21.663 0 32.966 0 44.989C 0 57.012 4.682 68.315 13.184 76.816C 21.686 85.317 32.988 90 45.011 90C 57.034 90 68.337 85.318 76.839 76.816C 94.388 59.266 94.388 30.712 76.839 13.161C 59.289 -4.387 30.733 -4.387 13.183 13.161ZM 75.252 75.229C 67.174 83.308 56.434 87.756 45.011 87.756C 33.588 87.756 22.847 83.308 14.771 75.229C 6.692 67.152 2.244 56.412 2.244 44.989C 2.244 33.566 6.692 22.825 14.771 14.748C 23.108 6.41 34.06 2.241 45.011 2.241C 55.963 2.241 66.915 6.41 75.252 14.748C 91.926 31.423 91.926 58.555 75.252 75.229Z"/>
<path id="path1_fill" d="M 8.446 16.892C 13.103 16.892 16.892 13.103 16.892 8.446C 16.892 3.789 13.103 -4.57764e-08 8.446 -4.57764e-08C 3.789 -4.57764e-08 7.32422e-07 3.789 7.32422e-07 8.446C 7.32422e-07 13.103 3.789 16.892 8.446 16.892ZM 8.446 1.95C 12.034 1.95 14.942 4.858 14.942 8.446C 14.942 12.034 12.034 14.942 8.446 14.942C 4.858 14.942 1.95 12.034 1.95 8.446C 1.95 4.858 4.858 1.95 8.446 1.95Z"/>
<path id="path2_fill" d="M 8.446 16.892C 13.103 16.892 16.892 13.103 16.892 8.446C 16.892 3.789 13.103 -4.57764e-08 8.446 -4.57764e-08C 3.789 -4.57764e-08 8.8501e-07 3.789 8.8501e-07 8.446C 8.8501e-07 13.103 3.789 16.892 8.446 16.892ZM 8.446 1.95C 12.034 1.95 14.942 4.858 14.942 8.446C 14.942 12.034 12.034 14.942 8.446 14.942C 4.858 14.942 1.95 12.034 1.95 8.446C 1.95 4.858 4.859 1.95 8.446 1.95Z"/>
<path id="path3_fill" d="M 14.5518 4.209C 11.3258 4.209 8.0918 4.56 4.9408 5.252C 2.0638 5.947 -0.175198 8.967 0.0108025 11.855L 0.187802 14.251C 0.710802 21.064 6.5688 28.866 14.1398 29.178C 14.1618 29.179 14.1828 29.179 14.2048 29.18L 14.5518 29.181C 16.6948 29.181 18.8578 29.025 20.9788 28.717C 21.3628 28.653 21.7398 28.549 22.1108 28.423C 23.5548 29.657 25.2498 30.521 27.0258 30.817C 29.8098 31.221 32.6058 31.423 35.3778 31.423C 38.1498 31.423 40.9458 31.221 43.6888 30.824C 45.4088 30.537 47.0448 29.722 48.4568 28.565C 48.6748 28.623 48.8938 28.673 49.1148 28.71C 51.2778 29.024 53.4408 29.18 55.5838 29.18L 55.9308 29.179C 55.9528 29.179 55.9738 29.178 55.9958 29.177C 63.5678 28.866 69.4258 21.064 69.9478 14.256L 70.1238 11.874C 70.3098 8.965 68.0708 5.946 65.2348 5.26C 62.0438 4.559 58.8108 4.208 55.5848 4.208L 55.5848 6.159C 58.6668 6.159 61.7488 6.492 64.7768 7.156C 66.7608 7.635 68.3018 9.812 68.1788 11.728C 68.1198 12.516 68.0618 13.309 68.0028 14.106C 67.5538 19.968 62.3558 26.963 55.9158 27.227C 55.8048 27.228 55.6948 27.228 55.5838 27.228C 53.7688 27.228 51.9548 27.106 50.1508 26.875C 51.7388 24.964 52.8068 22.569 52.9898 20.096C 53.1138 18.36 53.2388 16.643 53.3628 14.942C 53.4998 13.064 53.6368 11.205 53.7728 9.37C 53.9048 7.315 53.0298 5.216 51.5978 3.656C 50.5768 2.544 49.2748 1.703 47.8428 1.357C 43.7318 0.453998 39.5508 0 35.3798 0C 31.2088 0 27.0278 0.454 22.9548 1.348C 21.5048 1.698 20.1918 2.543 19.1648 3.656C 17.7268 5.216 16.8518 7.308 16.9838 9.35C 17.1208 11.197 17.2588 13.062 17.3958 14.942C 17.5198 16.645 17.6438 18.359 17.7688 20.092C 17.9488 22.538 18.9948 24.905 20.5458 26.805C 18.5588 27.086 16.5558 27.229 14.5538 27.229C 14.4428 27.229 14.3328 27.229 14.2218 27.228C 7.7828 26.963 2.5848 19.969 2.1348 14.107C 2.0758 13.309 2.0178 12.516 1.9588 11.729C 1.8358 9.813 3.3768 7.636 5.3608 7.157C 8.3888 6.492 11.4708 6.16 14.5528 6.16L 14.5518 4.209ZM 43.4108 28.894C 40.7478 29.28 38.0638 29.473 35.3798 29.473C 32.6958 29.473 30.0118 29.28 27.3488 28.894C 23.2968 28.218 20.0078 23.958 19.7128 19.954C 19.4508 16.305 19.1898 12.727 18.9298 9.226C 18.7688 6.723 20.7828 3.88 23.3738 3.254C 27.3288 2.385 31.3548 1.951 35.3808 1.951C 39.4068 1.951 43.4328 2.385 47.3868 3.254C 49.9778 3.88 51.9908 6.724 51.8298 9.226C 51.5688 12.727 51.3078 16.305 51.0468 19.954C 50.7508 23.957 47.4638 28.217 43.4108 28.894Z"/>
<path id="path4_fill" d="M 10.435 20.87C 16.189 20.87 20.87 16.189 20.87 10.435C 20.87 4.681 16.189 -5.64575e-07 10.435 -5.64575e-07C 4.681 -5.64575e-07 1.58691e-06 4.681 1.58691e-06 10.435C 1.58691e-06 16.189 4.681 20.87 10.435 20.87ZM 10.435 1.95C 15.121 1.95 18.92 5.749 18.92 10.435C 18.92 15.121 15.121 18.92 10.435 18.92C 5.749 18.92 1.95 15.121 1.95 10.435C 1.95 5.749 5.749 1.95 10.435 1.95Z"/>
<path id="path5_fill" d="M 35.75 52.3438C 35.75 53.6979 35.7083 54.9271 35.625 56.0312C 35.5417 57.1146 35.3854 58.1146 35.1562 59.0312C 34.9479 59.9271 34.7188 60.7188 34.4688 61.4062C 34.2188 62.0938 33.8646 62.7083 33.4062 63.25C 32.9479 63.7708 32.4896 64.2188 32.0312 64.5938C 31.5938 64.9688 31.0104 65.2917 30.2812 65.5625C 29.5729 65.8125 28.8854 66.0104 28.2188 66.1562C 27.5521 66.3229 26.7188 66.4479 25.7188 66.5312C 24.7188 66.6146 23.7604 66.6667 22.8438 66.6875C 21.9479 66.7292 20.8438 66.75 19.5312 66.75C 17.0521 66.75 14.9688 66.6771 13.2812 66.5312C 11.6146 66.3854 10.1875 66.0729 9 65.5938C 7.83333 65.1146 6.92708 64.625 6.28125 64.125C 5.63542 63.6042 5.125 62.7917 4.75 61.6875C 4.375 60.5625 4.125 59.4896 4 58.4688C 3.89583 57.4479 3.80208 56 3.71875 54.125L 9.5 53.1875C 9.5625 53.6458 9.625 54.2917 9.6875 55.125C 9.8125 56.4167 9.92708 57.3333 10.0312 57.875C 10.1562 58.3958 10.3854 58.9792 10.7188 59.625C 11.0521 60.2708 11.5729 60.6979 12.2812 60.9062C 12.9896 61.0938 13.9167 61.2604 15.0625 61.4062C 16.2083 61.5521 17.7396 61.625 19.6562 61.625C 21.2396 61.625 22.5417 61.5833 23.5625 61.5C 24.5833 61.4167 25.4792 61.25 26.25 61C 27.0208 60.7292 27.6042 60.4271 28 60.0938C 28.3958 59.7604 28.7083 59.25 28.9375 58.5625C 29.1875 57.8542 29.3438 57.125 29.4062 56.375C 29.4688 55.625 29.4896 54.625 29.4688 53.375C 29.4479 50.625 29.2917 48.7292 29 47.6875C 28.7292 46.625 28.1354 46 27.2188 45.8125L 11.6562 43.0938C 8.94792 42.6354 7.0625 41.6042 6 40C 4.9375 38.3958 4.375 35.8021 4.3125 32.2188C 4.3125 30.3021 4.40625 28.6667 4.59375 27.3125C 4.80208 25.9375 5.14583 24.7396 5.625 23.7188C 6.125 22.6771 6.72917 21.8438 7.4375 21.2188C 8.16667 20.5938 9.11458 20.0938 10.2812 19.7188C 11.4688 19.3229 12.7604 19.0625 14.1562 18.9375C 15.5729 18.7917 17.3021 18.7188 19.3438 18.7188C 21.0104 18.7188 22.4375 18.7604 23.625 18.8438C 24.8333 18.9062 26 19.0312 27.125 19.2188C 28.2708 19.4062 29.2188 19.6667 29.9688 20C 30.7188 20.3333 31.4062 20.7708 32.0312 21.3125C 32.6771 21.8333 33.1771 22.4792 33.5312 23.25C 33.8854 24 34.1562 24.8854 34.3438 25.9062C 34.5312 26.9271 34.625 28.1042 34.625 29.4375L 29.0625 30.7188C 28.8542 28.4271 28.7188 27.125 28.6562 26.8125C 28.4062 25.75 27.8125 25.0312 26.875 24.6562C 25.8333 24.2188 23.6562 24 20.3438 24C 18.5312 24 17.0312 24.0521 15.8438 24.1562C 14.6771 24.2604 13.7188 24.4167 12.9688 24.625C 12.2188 24.8125 11.6562 25.1042 11.2812 25.5C 10.9271 25.8958 10.6875 26.3229 10.5625 26.7812C 10.4375 27.2188 10.375 27.8021 10.375 28.5312L 10.375 33.9375C 10.375 35.8958 11.2292 37.0208 12.9375 37.3125L 24.125 39.2188C 25.1667 39.3854 26 39.5312 26.625 39.6562C 27.25 39.7812 27.9688 39.9479 28.7812 40.1562C 29.5938 40.3646 30.2292 40.5833 30.6875 40.8125C 31.1458 41.0417 31.6562 41.3333 32.2188 41.6875C 32.7812 42.0417 33.2188 42.4375 33.5312 42.875C 33.8438 43.3125 34.1562 43.8333 34.4688 44.4375C 34.8021 45.0417 35.0417 45.7292 35.1875 46.5C 35.3542 47.25 35.4896 48.1146 35.5938 49.0938C 35.6979 50.0521 35.75 51.1354 35.75 52.3438ZM 72.8875 24.25L 60.7313 24.25L 60.7313 66L 54.3875 66L 54.3875 24.25L 42.4813 24.25L 42.4813 19.4375L 72.8875 19.4375L 72.8875 24.25ZM 112.931 66L 106.494 66L 102.963 54.0938L 85.7438 54.0938L 82.3375 66L 76.2438 66L 90.525 19.4375L 98.9938 19.4375L 112.931 66ZM 101.65 49.5938L 97.7125 35.625L 94.4625 24.1875C 93.2542 28.5 92.1917 32.2083 91.275 35.3125L 87.0875 49.5938L 101.65 49.5938ZM 148.506 24.25L 129.288 24.25L 129.288 39.4375L 145.663 39.4375L 145.663 44.5L 129.288 44.5L 129.288 66L 122.944 66L 122.944 19.4375L 147.881 19.4375L 148.506 24.25ZM 184.331 24.25L 165.113 24.25L 165.113 39.4375L 181.488 39.4375L 181.488 44.5L 165.113 44.5L 165.113 66L 158.769 66L 158.769 19.4375L 183.706 19.4375L 184.331 24.25ZM 226.719 32.25C 226.719 36.2292 225.969 39.1875 224.469 41.125C 222.969 43.0417 220.875 44.2188 218.188 44.6562C 222.188 45.4688 224.562 48.0104 225.312 52.2812L 227.719 66L 220.938 66C 220.771 65.0417 220.573 63.6562 220.344 61.8438C 220.135 60.0104 219.938 58.4688 219.75 57.2188C 219.562 55.9479 219.312 54.6042 219 53.1875C 218.688 51.7708 218.271 50.5833 217.75 49.625C 217.25 48.6667 216.646 47.9583 215.938 47.5C 214.812 47.0208 212.969 46.7812 210.406 46.7812L 200.75 46.7812L 200.75 66L 194.438 66L 194.438 19.4375L 208.656 19.4375C 210.156 19.4375 211.427 19.4583 212.469 19.5C 213.531 19.5208 214.646 19.5833 215.812 19.6875C 216.979 19.7917 217.958 19.9375 218.75 20.125C 219.542 20.3125 220.344 20.5625 221.156 20.875C 221.99 21.1875 222.667 21.5729 223.188 22.0312C 223.729 22.4896 224.24 23.0417 224.719 23.6875C 225.198 24.3125 225.573 25.0417 225.844 25.875C 226.115 26.6875 226.323 27.625 226.469 28.6875C 226.635 29.75 226.719 30.9375 226.719 32.25ZM 220.469 34.7188L 220.469 30.375C 220.469 29.5833 220.448 28.9688 220.406 28.5312C 220.385 28.0729 220.312 27.5938 220.188 27.0938C 220.062 26.5729 219.865 26.1875 219.594 25.9375C 219.344 25.6667 219 25.4062 218.562 25.1562C 218.146 24.8854 217.594 24.6979 216.906 24.5938C 216.24 24.4896 215.448 24.4062 214.531 24.3438C 213.635 24.2604 212.552 24.2188 211.281 24.2188L 200.75 24.2188L 200.75 41.8125L 211.656 41.8125C 213.26 41.8125 214.583 41.7292 215.625 41.5625C 216.667 41.3958 217.51 41.1667 218.156 40.875C 218.823 40.5625 219.323 40.1042 219.656 39.5C 219.99 38.875 220.208 38.2188 220.312 37.5312C 220.417 36.8229 220.469 35.8854 220.469 34.7188Z"/>
</defs>
</svg>
